<?xml version="1.0" encoding="UTF-8" standalone="no"?>
<!-- Created with Inkscape (http://www.inkscape.org/) -->

<svg
   width="210mm"
   height="297mm"
   viewBox="0 0 210 297"
   version="1.1"
   id="svg1"
   xml:space="preserve"
   inkscape:version="1.4.2 (ebf0e940, 2025-05-08)"
   sodipodi:docname="drawing-logo.svg"
   xmlns:inkscape="http://www.inkscape.org/namespaces/inkscape"
   xmlns:sodipodi="http://sodipodi.sourceforge.net/DTD/sodipodi-0.dtd"
   xmlns="http://www.w3.org/2000/svg"
   xmlns:svg="http://www.w3.org/2000/svg"><sodipodi:namedview
     id="namedview1"
     pagecolor="#ffffff"
     bordercolor="#000000"
     borderopacity="0.25"
     inkscape:showpageshadow="2"
     inkscape:pageopacity="0.0"
     inkscape:pagecheckerboard="0"
     inkscape:deskcolor="#d1d1d1"
     inkscape:document-units="mm"
     inkscape:zoom="0.71891835"
     inkscape:cx="510.48913"
     inkscape:cy="863.79768"
     inkscape:window-width="1920"
     inkscape:window-height="1021"
     inkscape:window-x="0"
     inkscape:window-y="31"
     inkscape:window-maximized="1"
     inkscape:current-layer="layer1" /><defs
     id="defs1" /><g
     inkscape:label="Layer 1"
     inkscape:groupmode="layer"
     id="layer1"><rect
       style="fill:none;stroke-width:0.264583"
       id="rect1"
       width="270.93332"
       height="270.93332"
       x="100.99328"
       y="89.639114" /><g
       id="g10"
       inkscape:export-filename="assets/icon.png"
       inkscape:export-xdpi="96"
       inkscape:export-ydpi="96"><rect
         style="fill:none;stroke-width:0.264583"
         id="rect9"
         width="270.93332"
         height="270.93332"
         x="48.947956"
         y="91.271378" /><g
         style="clip-rule:evenodd;fill-rule:evenodd;stroke-linejoin:round;stroke-miterlimit:2"
         id="g9"
         transform="matrix(1.564433,0,0,1.564433,74.122089,176.67618)"><rect
           width="141"
           height="64"
           fill="none"
           id="rect1-9"
           x="0"
           y="0" /><g
           fill-rule="nonzero"
           fill="currentColor"
           id="g6"><path
             d="m 0.623,22.811 h 7.34 c 4.893,0 8.206,0.189 9.938,0.567 1.732,0.377 3.145,1.342 4.237,2.894 1.091,1.551 1.637,4.027 1.637,7.426 0,3.103 -0.385,5.188 -1.157,6.256 -0.772,1.067 -2.291,1.707 -4.557,1.921 2.053,0.509 3.432,1.19 4.138,2.044 0.706,0.854 1.145,1.638 1.318,2.352 0.172,0.714 0.258,2.681 0.258,5.899 v 10.517 h -9.63 V 49.436 c 0,-2.135 -0.168,-3.456 -0.505,-3.965 -0.336,-0.509 -1.219,-0.764 -2.648,-0.764 v 17.98 H 0.623 Z m 10.369,6.823 V 38.5 c 1.166,0 1.983,-0.16 2.451,-0.48 0.468,-0.32 0.702,-1.359 0.702,-3.116 v -2.192 c 0,-1.264 -0.226,-2.093 -0.677,-2.487 -0.452,-0.394 -1.277,-0.591 -2.476,-0.591 z"
             id="path1" /><path
             d="m 36.386,42.663 h -9.335 v -2.192 c 0,-2.529 0.292,-4.479 0.875,-5.85 0.582,-1.371 1.752,-2.582 3.509,-3.633 1.757,-1.051 4.04,-1.576 6.847,-1.576 3.367,0 5.903,0.595 7.611,1.786 1.708,1.19 2.734,2.651 3.079,4.384 0.345,1.732 0.517,5.299 0.517,10.701 v 16.404 h -9.68 v -2.913 c -0.607,1.168 -1.391,2.044 -2.352,2.628 -0.96,0.584 -2.106,0.876 -3.436,0.876 -1.74,0 -3.337,-0.488 -4.79,-1.465 -1.453,-0.977 -2.18,-3.116 -2.18,-6.417 v -2.684 c 0,-2.447 0.386,-4.113 1.158,-5 0.772,-0.887 2.684,-1.921 5.739,-3.103 3.267,-1.281 5.016,-2.143 5.246,-2.587 0.23,-0.443 0.345,-1.346 0.345,-2.709 0,-1.708 -0.128,-2.82 -0.382,-3.337 -0.255,-0.517 -0.678,-0.776 -1.269,-0.776 -0.673,0 -1.092,0.218 -1.256,0.653 -0.164,0.435 -0.246,1.564 -0.246,3.386 z m 3.153,4.482 c -1.593,1.166 -2.517,2.143 -2.771,2.931 -0.255,0.789 -0.382,1.922 -0.382,3.399 0,1.692 0.111,2.784 0.332,3.276 0.222,0.493 0.661,0.739 1.318,0.739 0.624,0 1.03,-0.193 1.219,-0.579 0.189,-0.386 0.284,-1.4 0.284,-3.042 z"
             id="path2-7" /><path
             d="m 73.232,40.446 h -8.817 v -1.773 c 0,-1.511 -0.086,-2.467 -0.259,-2.87 -0.172,-0.402 -0.603,-0.603 -1.293,-0.603 -0.558,0 -0.977,0.185 -1.256,0.554 -0.279,0.37 -0.419,0.924 -0.419,1.663 0,1.001 0.07,1.736 0.21,2.204 0.139,0.468 0.558,0.981 1.256,1.539 0.698,0.559 2.13,1.371 4.298,2.439 2.89,1.412 4.786,2.742 5.689,3.99 0.903,1.248 1.355,3.062 1.355,5.443 0,2.66 -0.345,4.667 -1.035,6.022 -0.689,1.355 -1.843,2.397 -3.46,3.128 -1.617,0.731 -3.567,1.096 -5.85,1.096 -2.528,0 -4.692,-0.394 -6.49,-1.182 -1.798,-0.788 -3.033,-1.856 -3.707,-3.202 -0.673,-1.346 -1.009,-3.383 -1.009,-6.108 v -1.577 h 8.817 v 2.069 c 0,1.757 0.111,2.898 0.333,3.424 0.221,0.525 0.661,0.788 1.317,0.788 0.706,0 1.199,-0.176 1.478,-0.53 0.279,-0.353 0.419,-1.096 0.419,-2.229 0,-1.559 -0.181,-2.536 -0.542,-2.93 -0.378,-0.395 -2.307,-1.56 -5.788,-3.498 -2.923,-1.642 -4.704,-3.132 -5.345,-4.47 -0.64,-1.338 -0.96,-2.927 -0.96,-4.766 0,-2.611 0.345,-4.536 1.034,-5.776 0.69,-1.24 1.86,-2.196 3.51,-2.869 1.65,-0.673 3.567,-1.01 5.751,-1.01 2.167,0 4.011,0.275 5.529,0.825 1.519,0.55 2.685,1.277 3.498,2.18 0.813,0.903 1.305,1.74 1.478,2.512 0.172,0.772 0.258,1.979 0.258,3.621 z"
             id="path3" /><path
             d="m 87.148,25.644 v 5.147 h 2.685 v 5.172 h -2.685 v 17.488 c 0,2.151 0.111,3.349 0.333,3.596 0.221,0.246 1.145,0.369 2.771,0.369 v 5.271 h -4.015 c -2.266,0 -3.883,-0.094 -4.852,-0.283 -0.969,-0.189 -1.823,-0.624 -2.562,-1.306 -0.739,-0.681 -1.198,-1.461 -1.379,-2.34 -0.181,-0.878 -0.271,-2.943 -0.271,-6.194 V 35.963 H 75.03 v -5.172 h 2.143 v -5.147 z"
             id="path4" /><path
             d="m 114.56,46.924 h -12.881 v 7.069 c 0,1.477 0.107,2.43 0.32,2.857 0.214,0.427 0.624,0.64 1.232,0.64 0.755,0 1.26,-0.283 1.514,-0.85 0.255,-0.566 0.382,-1.662 0.382,-3.288 v -4.31 h 9.433 v 2.414 c 0,2.019 -0.127,3.571 -0.381,4.655 -0.255,1.083 -0.85,2.241 -1.786,3.473 -0.936,1.231 -2.122,2.155 -3.559,2.77 -1.437,0.616 -3.239,0.924 -5.406,0.924 -2.102,0 -3.958,-0.304 -5.567,-0.911 C 96.252,61.759 95,60.926 94.105,59.867 93.21,58.808 92.59,57.642 92.246,56.369 91.901,55.097 91.728,53.245 91.728,50.815 v -9.531 c 0,-2.858 0.386,-5.111 1.158,-6.761 0.772,-1.651 2.036,-2.915 3.793,-3.793 1.757,-0.879 3.777,-1.318 6.059,-1.318 2.791,0 5.094,0.529 6.909,1.589 1.814,1.059 3.087,2.463 3.817,4.211 0.731,1.749 1.096,4.208 1.096,7.377 z m -9.975,-5.32 v -2.389 c 0,-1.692 -0.09,-2.784 -0.271,-3.276 -0.18,-0.493 -0.55,-0.739 -1.108,-0.739 -0.69,0 -1.117,0.209 -1.281,0.628 -0.164,0.419 -0.246,1.548 -0.246,3.387 v 2.389 z"
             id="path5" /><path
             d="m 139.81,42.343 h -9.384 v -3.769 c 0,-1.313 -0.107,-2.204 -0.32,-2.672 -0.214,-0.468 -0.608,-0.702 -1.182,-0.702 -0.575,0 -0.961,0.205 -1.158,0.616 -0.197,0.41 -0.296,1.33 -0.296,2.758 v 15.419 c 0,1.165 0.148,2.04 0.444,2.623 0.295,0.583 0.73,0.874 1.305,0.874 0.673,0 1.129,-0.304 1.367,-0.911 0.238,-0.608 0.357,-1.757 0.357,-3.448 v -3.892 h 8.867 c -0.016,2.611 -0.111,4.569 -0.283,5.874 -0.173,1.306 -0.723,2.644 -1.65,4.015 -0.928,1.371 -2.139,2.405 -3.633,3.103 -1.495,0.698 -3.342,1.047 -5.542,1.047 -2.808,0 -5.033,-0.48 -6.675,-1.441 -1.642,-0.96 -2.804,-2.307 -3.485,-4.039 -0.681,-1.732 -1.022,-4.191 -1.022,-7.377 v -9.285 c 0,-2.775 0.279,-4.869 0.837,-6.281 0.559,-1.412 1.749,-2.672 3.572,-3.781 1.822,-1.108 4.039,-1.662 6.65,-1.662 2.594,0 4.811,0.55 6.65,1.65 1.839,1.1 3.062,2.488 3.67,4.163 0.607,1.674 0.911,4.047 0.911,7.118 z"
             id="path6" /></g><circle
           cx="124.99"
           cy="15.467"
           r="11.318"
           fill="#81ce00"
           id="circle6" /><circle
           cx="100.95"
           cy="9.5059996"
           r="8.7840004"
           fill="#81ce00"
           id="circle7" /><circle
           cx="78.912003"
           cy="8.1789999"
           r="7.4569998"
           fill="#81ce00"
           id="circle8" /><circle
           cx="60.639"
           cy="12.462"
           r="5.2610002"
           fill="#81ce00"
           id="circle9" /><circle
           cx="49.66"
           cy="19.038"
           r="3.4030001"
           fill="#81ce00"
           id="circle10" /></g></g></g></svg>
